#N canvas 762 433 918 586 12;
#X obj 95 170 env~;
#X obj 96 192 - 90, f 8;
#X obj 98 265 vu 19 200 empty Live\ Db -1 -10 0 12 #404040 #000000 1 0;
#X obj 95 119 *~;
#X floatatom 164 492 5 0 0 0 - - - 0;
#X msg 824 143 devices;
#X msg 839 192 close;
#X obj 631 309 print;
#X msg 830 168 open 3;
#X obj 632 250 comport 0 9600;
#X floatatom 795 67 5 0 0 0 - - - 0;
#X obj 635 129 moocow/any2bytes;
#X obj 635 158 cyclone/zl ecils 1;
#X obj 635 187 cyclone/append 32 13;
#X obj 93 80 adc~ 1;
#X obj 286 168 env~;
#X obj 287 190 - 90, f 8;
#X obj 289 263 vu 19 200 empty Live\ Db -1 -10 0 12 #404040 #000000 1 0;
#X obj 286 117 *~;
#X floatatom 191 97 0 0 20 0 - - - 0;
#X floatatom 222 492 5 0 0 0 - - - 0;
#X obj 284 78 adc~ 2;
#X text 60 35 LEFT, f 7;
#X text 341 34 RIGHT;
#X floatatom 361 552 5 0 0 0 - - - 0;
#X text 165 75 Input GAIN;
#X obj 203 534 +;
#X connect 0 0 1 0;
#X connect 1 0 2 0;
#X connect 2 0 4 0;
#X connect 3 0 0 0;
#X connect 4 0 26 0;
#X connect 5 0 9 0;
#X connect 6 0 9 0;
#X connect 8 0 9 0;
#X connect 9 0 7 0;
#X connect 9 1 7 0;
#X connect 10 0 11 0;
#X connect 11 0 12 0;
#X connect 12 0 13 0;
#X connect 13 0 9 0;
#X connect 14 0 3 0;
#X connect 15 0 16 0;
#X connect 16 0 17 0;
#X connect 17 0 20 0;
#X connect 18 0 15 0;
#X connect 19 0 18 1;
#X connect 19 0 3 1;
#X connect 20 0 26 1;
#X connect 21 0 18 0;
#X connect 26 0 24 0;
