#N canvas 760 25 1009 981 12;
#X obj 114 563 *~;
#X obj 167 563 *~;
#X floatatom 249 483 5 0 0 0 - - - 0;
#X obj 96 618 env~;
#X obj 178 618 env~;
#X obj 90 668 - 90;
#X obj 181 669 - 90;
#X obj 99 716 vu 19 200 empty empty -1 -10 0 12 #404040 #000000 1 0;
#X obj 186 712 vu 19 200 empty empty -1 -10 0 12 #404040 #000000 1 0;
#X obj 283 598 dac~;
#X obj 39 334 soundfiler;
#N canvas 0 22 450 278 (subpatch) 0;
#X array audioData1 664181 float 2;
#X coords 0 1 664181 -1 200 140 1;
#X restore 415 324 graph;
#N canvas 0 22 450 278 (subpatch) 0;
#X array audioData2 664181 float 2;
#X coords 0 1 664181 -1 200 140 1;
#X restore 419 491 graph;
#X obj 80 418 tabplay~ audioData1;
#X obj 139 372 bng 19 250 50 0 empty empty empty 0 -10 0 12 #fcfcfc #000000 #000000;
#X msg 175 373 stop;
#X obj 283 394 bng 19 250 50 0 empty empty empty 0 -10 0 12 #fcfcfc #000000 #000000;
#X msg 45 28 read -resize /Users/kaufmanas/SOUND/TEST.wav audioData1 audioData2, f 74;
#X msg 91 59 read -resize /Users/kaufmanas/SOUND/001.wav audioData1 audioData2, f 74;
#X msg 90 87 read -resize /Users/kaufmanas/SOUND/003.wav audioData1 audioData2, f 74;
#X msg 91 116 read -resize /Users/kaufmanas/SOUND/004.wav audioData1 audioData2, f 74;
#X msg 92 145 read -resize /Users/kaufmanas/SOUND/005.wav audioData1 audioData2, f 74;
#X msg 93 174 read -resize /Users/kaufmanas/SOUND/006.wav audioData1 audioData2, f 74;
#X msg 92 202 read -resize /Users/kaufmanas/SOUND/007.wav audioData1 audioData2, f 74;
#X msg 93 231 read -resize /Users/kaufmanas/SOUND/008.wav audioData1 audioData2, f 74;
#X msg 94 256 read -resize /Users/kaufmanas/SOUND/009.wav audioData1 audioData2, f 74;
#X obj 103 447 tabplay~ audioData2;
#X text 313 396 END;
#X text 134 345 START;
#X connect 0 0 3 0;
#X connect 0 0 9 0;
#X connect 1 0 4 0;
#X connect 1 0 9 1;
#X connect 2 0 1 1;
#X connect 2 0 0 1;
#X connect 3 0 5 0;
#X connect 4 0 6 0;
#X connect 5 0 7 0;
#X connect 6 0 8 0;
#X connect 13 0 0 0;
#X connect 13 1 16 0;
#X connect 14 0 13 0;
#X connect 14 0 26 0;
#X connect 15 0 13 0;
#X connect 15 0 26 0;
#X connect 17 0 10 0;
#X connect 18 0 10 0;
#X connect 19 0 10 0;
#X connect 20 0 10 0;
#X connect 22 0 10 0;
#X connect 23 0 10 0;
#X connect 24 0 10 0;
#X connect 25 0 10 0;
#X connect 26 0 1 0;
#X connect 26 1 16 0;
