#N canvas 532 433 1148 587 12;
#X obj 114 563 *~;
#X obj 167 563 *~;
#X floatatom 250 520 5 0 0 0 - - - 0;
#X obj 96 618 env~;
#X obj 178 618 env~;
#X obj 90 668 - 90;
#X obj 181 669 - 90;
#X obj 99 716 vu 19 200 empty empty -1 -10 0 12 #404040 #000000 1 0;
#X obj 186 712 vu 19 200 empty empty -1 -10 0 12 #404040 #000000 1 0;
#X obj 283 598 dac~;
#X obj 39 334 soundfiler;
#N canvas 0 22 450 278 (subpatch) 0;
#X array audioData1 7.4465e+06 float 2;
#X coords 0 1 7.4465e+06 -1 200 140 1;
#X restore 674 33 graph;
#N canvas 0 22 450 278 (subpatch) 0;
#X array audioData2 7.4465e+06 float 2;
#X coords 0 1 7.4465e+06 -1 200 140 1;
#X restore 674 192 graph;
#X obj 80 418 tabplay~ audioData1;
#X obj 139 372 bng 19 250 50 0 empty empty empty 0 -10 0 12 #fcfcfc #000000 #000000;
#X msg 175 373 stop;
#X obj 283 394 bng 19 250 50 0 empty empty empty 0 -10 0 12 #fcfcfc #000000 #000000;
#X msg 45 28 read -resize /Users/kaufmanas/SOUND/TEST.wav audioData1 audioData2, f 74;
#X msg 91 59 read -resize /Users/kaufmanas/SOUND/001.wav audioData1 audioData2, f 74;
#X msg 90 87 read -resize /Users/kaufmanas/SOUND/003.wav audioData1 audioData2, f 74;
#X msg 91 116 read -resize /Users/kaufmanas/SOUND/004.wav audioData1 audioData2, f 74;
#X msg 92 145 read -resize /Users/kaufmanas/SOUND/005.wav audioData1 audioData2, f 74;
#X msg 93 174 read -resize /Users/kaufmanas/SOUND/006.wav audioData1 audioData2, f 74;
#X msg 92 202 read -resize /Users/kaufmanas/SOUND/007.wav audioData1 audioData2, f 74;
#X msg 93 231 read -resize /Users/kaufmanas/SOUND/008.wav audioData1 audioData2, f 74;
#X msg 94 256 read -resize /Users/kaufmanas/SOUND/009.wav audioData1 audioData2, f 74;
#X obj 103 447 tabplay~ audioData2;
#X text 313 396 END;
#X text 134 345 START;
#X obj 436 523 env~;
#X obj 437 545 - 90, f 8;
#X obj 439 618 vu 19 200 empty Live\ Db -1 -10 0 12 #404040 #000000 1 0;
#X obj 436 472 *~;
#X msg 931 471 devices;
#X msg 946 520 close;
#X obj 738 637 print;
#X msg 937 496 open 3;
#X obj 739 578 comport 0 9600;
#X floatatom 661 413 5 0 0 0 - - - 0;
#X obj 742 457 moocow/any2bytes;
#X obj 742 486 cyclone/zl ecils 1;
#X obj 742 515 cyclone/append 32 13;
#X obj 434 433 adc~ 1;
#X obj 536 522 env~;
#X obj 537 544 - 90, f 8;
#X obj 528 615 vu 19 200 empty Live\ Db -1 -10 0 12 #404040 #000000 1 0;
#X obj 536 471 *~;
#X floatatom 497 403 0 0 20 0 - - - 0;
#X obj 534 432 adc~ 2;
#X floatatom 518 839 5 0 0 0 - - - 0;
#X obj 463 831 +;
#X obj 181 930 +;
#X text 451 367 Input GAIN;
#X text 239 490 Playback GAIN;
#X connect 0 0 3 0;
#X connect 0 0 9 0;
#X connect 1 0 4 0;
#X connect 1 0 9 1;
#X connect 2 0 1 1;
#X connect 2 0 0 1;
#X connect 3 0 5 0;
#X connect 4 0 6 0;
#X connect 5 0 7 0;
#X connect 6 0 8 0;
#X connect 7 0 51 0;
#X connect 8 0 51 1;
#X connect 13 0 0 0;
#X connect 13 1 16 0;
#X connect 14 0 13 0;
#X connect 14 0 26 0;
#X connect 15 0 13 0;
#X connect 15 0 26 0;
#X connect 17 0 10 0;
#X connect 18 0 10 0;
#X connect 19 0 10 0;
#X connect 20 0 10 0;
#X connect 22 0 10 0;
#X connect 23 0 10 0;
#X connect 24 0 10 0;
#X connect 25 0 10 0;
#X connect 26 0 1 0;
#X connect 26 1 16 0;
#X connect 29 0 30 0;
#X connect 30 0 31 0;
#X connect 31 0 50 0;
#X connect 32 0 29 0;
#X connect 33 0 37 0;
#X connect 34 0 37 0;
#X connect 36 0 37 0;
#X connect 37 0 35 0;
#X connect 37 1 35 0;
#X connect 38 0 39 0;
#X connect 39 0 40 0;
#X connect 40 0 41 0;
#X connect 41 0 37 0;
#X connect 42 0 32 0;
#X connect 43 0 44 0;
#X connect 44 0 45 0;
#X connect 45 0 50 1;
#X connect 46 0 43 0;
#X connect 47 0 46 1;
#X connect 47 0 32 1;
#X connect 48 0 46 0;
#X connect 49 0 38 0;
#X connect 50 0 49 0;
