#N canvas 27 36 618 662 12;
#X obj 156 170 readsf~ 2;
#X obj 148 259 *~;
#X obj 201 259 *~;
#X floatatom 283 179 5 0 0 0 - - - 0;
#X obj 237 107 tgl 19 0 empty empty empty 0 -10 0 12 #fcfcfc #000000 #000000 0 1;
#X msg 111 99 open 001.mp3, f 15;
#X obj 130 314 env~;
#X obj 212 314 env~;
#X obj 124 364 - 90;
#X obj 215 365 - 90;
#X obj 130 423 vu 19 200 empty empty -1 -10 0 12 #404040 #000000 1 0;
#X obj 217 419 vu 19 200 empty empty -1 -10 0 12 #404040 #000000 1 0;
#X connect 0 0 1 0;
#X connect 0 1 2 0;
#X connect 1 0 6 0;
#X connect 2 0 7 0;
#X connect 3 0 2 1;
#X connect 3 0 1 1;
#X connect 4 0 0 0;
#X connect 5 0 0 0;
#X connect 6 0 8 0;
#X connect 7 0 9 0;
#X connect 8 0 10 0;
#X connect 9 0 11 0;
